<mxfile host="65bd71144e">
    <diagram id="u9JpP389CqMRBe4IGvpg" name="Page-1">
        <mxGraphModel dx="3460" dy="2940" grid="1" gridSize="10" guides="1" tooltips="1" connect="1" arrows="1" fold="1" page="1" pageScale="1" pageWidth="850" pageHeight="1100" math="0" shadow="0">
            <root>
                <mxCell id="0"/>
                <mxCell id="1" parent="0"/>
                <mxCell id="2" value="User Authentication" style="swimlane;startSize=30;horizontal=1;" parent="1" vertex="1">
                    <mxGeometry width="2710" height="600" as="geometry"/>
                </mxCell>
                <mxCell id="3" value="User Profile" style="shape=note;whiteSpace=wrap;html=1;backgroundOutline=1;darkOpacity=0.05;fillColor=#b0deb3;strokeColor=none;fontSize=16;fontStyle=0;rotation=0;shadow=1;" parent="2" vertex="1">
                    <mxGeometry x="40" y="273.59000000000003" width="120" height="120" as="geometry"/>
                </mxCell>
                <mxCell id="4" value="User" style="shape=note;whiteSpace=wrap;html=1;backgroundOutline=1;darkOpacity=0.05;fillColor=#fee750;strokeColor=none;fontSize=16;fontStyle=0;rotation=0;shadow=1;" parent="2" vertex="1">
                    <mxGeometry x="260" y="273.59000000000003" width="120" height="120" as="geometry"/>
                </mxCell>
                <mxCell id="5" value="Login User" style="shape=note;whiteSpace=wrap;html=1;backgroundOutline=1;darkOpacity=0.05;fillColor=#a7c5fc;strokeColor=none;fontSize=16;fontStyle=0;rotation=0;shadow=1;" parent="2" vertex="1">
                    <mxGeometry x="480" y="273.59000000000003" width="120" height="120" as="geometry"/>
                </mxCell>
                <mxCell id="6" value="Login Policy" style="shape=note;whiteSpace=wrap;html=1;backgroundOutline=1;darkOpacity=0.05;fillColor=#fef5b2;strokeColor=none;fontSize=16;fontStyle=0;rotation=0;shadow=1;" parent="2" vertex="1">
                    <mxGeometry x="700" y="243.59000000000003" width="240" height="180" as="geometry"/>
                </mxCell>
                <mxCell id="7" value="Login Attempted" style="shape=note;whiteSpace=wrap;html=1;backgroundOutline=1;darkOpacity=0.05;fillColor=#feae57;strokeColor=none;fontSize=16;fontStyle=0;rotation=0;shadow=1;" parent="2" vertex="1">
                    <mxGeometry x="1040" y="273.59000000000003" width="120" height="120" as="geometry"/>
                </mxCell>
                <mxCell id="8" value="On Success" style="shape=note;whiteSpace=wrap;html=1;backgroundOutline=1;darkOpacity=0.05;fillColor=#da99e6;strokeColor=none;fontSize=16;fontStyle=0;rotation=0;shadow=1;" parent="2" vertex="1">
                    <mxGeometry x="1260" y="198.59000000000003" width="120" height="120" as="geometry"/>
                </mxCell>
                <mxCell id="9" value="On Failure" style="shape=note;whiteSpace=wrap;html=1;backgroundOutline=1;darkOpacity=0.05;fillColor=#da99e6;strokeColor=none;fontSize=16;fontStyle=0;rotation=0;shadow=1;" parent="2" vertex="1">
                    <mxGeometry x="1260" y="348.59000000000003" width="120" height="120" as="geometry"/>
                </mxCell>
                <mxCell id="10" value="Login Failed" style="shape=note;whiteSpace=wrap;html=1;backgroundOutline=1;darkOpacity=0.05;fillColor=#feae57;strokeColor=none;fontSize=16;fontStyle=0;rotation=0;shadow=1;" parent="2" vertex="1">
                    <mxGeometry x="2260" y="348.59000000000003" width="120" height="120" as="geometry"/>
                </mxCell>
                <mxCell id="11" value="Login Succeeded" style="shape=note;whiteSpace=wrap;html=1;backgroundOutline=1;darkOpacity=0.05;fillColor=#feae57;strokeColor=none;fontSize=16;fontStyle=0;rotation=0;shadow=1;" parent="2" vertex="1">
                    <mxGeometry x="1480" y="199.99625000000003" width="120" height="120" as="geometry"/>
                </mxCell>
                <mxCell id="12" value="Create Session" style="shape=note;whiteSpace=wrap;html=1;backgroundOutline=1;darkOpacity=0.05;fillColor=#a7c5fc;strokeColor=none;fontSize=16;fontStyle=0;rotation=0;shadow=1;" parent="2" vertex="1">
                    <mxGeometry x="1700" y="199.99625000000003" width="120" height="120" as="geometry"/>
                </mxCell>
                <mxCell id="13" value="Session Management Policy" style="shape=note;whiteSpace=wrap;html=1;backgroundOutline=1;darkOpacity=0.05;fillColor=#fef5b2;strokeColor=none;fontSize=16;fontStyle=0;rotation=0;shadow=1;" parent="2" vertex="1">
                    <mxGeometry x="1920" y="169.99625000000003" width="240" height="180" as="geometry"/>
                </mxCell>
                <mxCell id="14" value="Session Established" style="shape=note;whiteSpace=wrap;html=1;backgroundOutline=1;darkOpacity=0.05;fillColor=#feae57;strokeColor=none;fontSize=16;fontStyle=0;rotation=0;shadow=1;" parent="2" vertex="1">
                    <mxGeometry x="2260" y="198.59000000000003" width="120" height="120" as="geometry"/>
                </mxCell>
                <mxCell id="15" value="Session Status" style="shape=note;whiteSpace=wrap;html=1;backgroundOutline=1;darkOpacity=0.05;fillColor=#b0deb3;strokeColor=none;fontSize=16;fontStyle=0;rotation=0;shadow=1;" parent="2" vertex="1">
                    <mxGeometry x="2480" y="273.59000000000003" width="120" height="120" as="geometry"/>
                </mxCell>
                <mxCell id="16" style="edgeStyle=orthogonalEdgeStyle;rounded=0;orthogonalLoop=1;jettySize=auto;html=1;noEdgeStyle=1;orthogonal=1;" parent="2" source="3" target="4" edge="1">
                    <mxGeometry relative="1" as="geometry">
                        <Array as="points">
                            <mxPoint x="172" y="333.59000000000003"/>
                            <mxPoint x="248" y="333.59000000000003"/>
                        </Array>
                    </mxGeometry>
                </mxCell>
                <mxCell id="17" style="edgeStyle=orthogonalEdgeStyle;rounded=0;orthogonalLoop=1;jettySize=auto;html=1;noEdgeStyle=1;orthogonal=1;" parent="2" source="4" target="5" edge="1">
                    <mxGeometry relative="1" as="geometry">
                        <Array as="points">
                            <mxPoint x="392" y="333.59000000000003"/>
                            <mxPoint x="468" y="333.59000000000003"/>
                        </Array>
                    </mxGeometry>
                </mxCell>
                <mxCell id="18" style="edgeStyle=orthogonalEdgeStyle;rounded=0;orthogonalLoop=1;jettySize=auto;html=1;noEdgeStyle=1;orthogonal=1;" parent="2" source="5" target="6" edge="1">
                    <mxGeometry relative="1" as="geometry">
                        <Array as="points">
                            <mxPoint x="612" y="333.59000000000003"/>
                            <mxPoint x="688" y="333.59000000000003"/>
                        </Array>
                    </mxGeometry>
                </mxCell>
                <mxCell id="19" style="edgeStyle=orthogonalEdgeStyle;rounded=0;orthogonalLoop=1;jettySize=auto;html=1;noEdgeStyle=1;orthogonal=1;" parent="2" source="6" target="7" edge="1">
                    <mxGeometry relative="1" as="geometry">
                        <Array as="points">
                            <mxPoint x="952" y="333.59000000000003"/>
                            <mxPoint x="1028" y="333.59000000000003"/>
                        </Array>
                    </mxGeometry>
                </mxCell>
                <mxCell id="20" style="edgeStyle=orthogonalEdgeStyle;rounded=0;orthogonalLoop=1;jettySize=auto;html=1;noEdgeStyle=1;orthogonal=1;" parent="2" source="7" target="8" edge="1">
                    <mxGeometry relative="1" as="geometry">
                        <Array as="points">
                            <mxPoint x="1172" y="306.09000000000003"/>
                            <mxPoint x="1248" y="258.59000000000003"/>
                        </Array>
                    </mxGeometry>
                </mxCell>
                <mxCell id="21" style="edgeStyle=orthogonalEdgeStyle;rounded=0;orthogonalLoop=1;jettySize=auto;html=1;noEdgeStyle=1;orthogonal=1;" parent="2" source="7" target="9" edge="1">
                    <mxGeometry relative="1" as="geometry">
                        <Array as="points">
                            <mxPoint x="1172" y="361.09000000000003"/>
                            <mxPoint x="1248" y="408.59000000000003"/>
                        </Array>
                    </mxGeometry>
                </mxCell>
                <mxCell id="22" style="edgeStyle=orthogonalEdgeStyle;rounded=0;orthogonalLoop=1;jettySize=auto;html=1;noEdgeStyle=1;orthogonal=1;" parent="2" source="9" target="10" edge="1">
                    <mxGeometry relative="1" as="geometry">
                        <Array as="points">
                            <mxPoint x="1392" y="408.59000000000003"/>
                            <mxPoint x="1430" y="408.59000000000003"/>
                            <mxPoint x="1650" y="408.59000000000003"/>
                            <mxPoint x="1650" y="408.59000000000003"/>
                            <mxPoint x="1870" y="408.59000000000003"/>
                            <mxPoint x="1870" y="408.59000000000003"/>
                            <mxPoint x="2210" y="408.59000000000003"/>
                            <mxPoint x="2248" y="408.59000000000003"/>
                        </Array>
                    </mxGeometry>
                </mxCell>
                <mxCell id="23" style="edgeStyle=orthogonalEdgeStyle;rounded=0;orthogonalLoop=1;jettySize=auto;html=1;noEdgeStyle=1;orthogonal=1;" parent="2" source="8" target="11" edge="1">
                    <mxGeometry relative="1" as="geometry">
                        <Array as="points">
                            <mxPoint x="1392" y="258.59000000000003"/>
                            <mxPoint x="1468" y="259.99625000000003"/>
                        </Array>
                    </mxGeometry>
                </mxCell>
                <mxCell id="24" style="edgeStyle=orthogonalEdgeStyle;rounded=0;orthogonalLoop=1;jettySize=auto;html=1;noEdgeStyle=1;orthogonal=1;" parent="2" source="11" target="12" edge="1">
                    <mxGeometry relative="1" as="geometry">
                        <Array as="points">
                            <mxPoint x="1612" y="259.99625000000003"/>
                            <mxPoint x="1688" y="259.99625000000003"/>
                        </Array>
                    </mxGeometry>
                </mxCell>
                <mxCell id="25" style="edgeStyle=orthogonalEdgeStyle;rounded=0;orthogonalLoop=1;jettySize=auto;html=1;noEdgeStyle=1;orthogonal=1;" parent="2" source="12" target="13" edge="1">
                    <mxGeometry relative="1" as="geometry">
                        <Array as="points">
                            <mxPoint x="1832" y="259.99625000000003"/>
                            <mxPoint x="1908" y="259.99625000000003"/>
                        </Array>
                    </mxGeometry>
                </mxCell>
                <mxCell id="26" style="edgeStyle=orthogonalEdgeStyle;rounded=0;orthogonalLoop=1;jettySize=auto;html=1;noEdgeStyle=1;orthogonal=1;" parent="2" source="13" target="14" edge="1">
                    <mxGeometry relative="1" as="geometry">
                        <Array as="points">
                            <mxPoint x="2172" y="259.99625000000003"/>
                            <mxPoint x="2248" y="258.59000000000003"/>
                        </Array>
                    </mxGeometry>
                </mxCell>
                <mxCell id="27" style="edgeStyle=orthogonalEdgeStyle;rounded=0;orthogonalLoop=1;jettySize=auto;html=1;noEdgeStyle=1;orthogonal=1;" parent="2" source="14" target="15" edge="1">
                    <mxGeometry relative="1" as="geometry">
                        <Array as="points">
                            <mxPoint x="2392" y="258.59000000000003"/>
                            <mxPoint x="2468" y="306.09000000000003"/>
                        </Array>
                    </mxGeometry>
                </mxCell>
                <mxCell id="28" style="edgeStyle=orthogonalEdgeStyle;rounded=0;orthogonalLoop=1;jettySize=auto;html=1;noEdgeStyle=1;orthogonal=1;" parent="2" source="10" target="15" edge="1">
                    <mxGeometry relative="1" as="geometry">
                        <Array as="points">
                            <mxPoint x="2392" y="408.59000000000003"/>
                            <mxPoint x="2468" y="361.09000000000003"/>
                        </Array>
                    </mxGeometry>
                </mxCell>
            </root>
        </mxGraphModel>
    </diagram>
</mxfile>